<svg xmlns="http://www.w3.org/2000/svg" viewBox="0 0 113.87 131.24"><defs><style>.cls-1{fill:#d1d1d1;}.cls-1,.cls-2,.cls-3,.cls-4,.cls-5,.cls-6,.cls-7,.cls-8{fill-rule:evenodd;}.cls-3{fill:#2b4764;}.cls-4{fill:#4d7da0;}.cls-5{fill:#58595b;}.cls-6{fill:#fff;}.cls-7{fill:#ed8c8f;}.cls-8{fill:#91b8b5;}</style></defs><title>bot</title><g id="OBJECTS"><g id="_6" data-name="6"><path class="cls-1" d="M109,132.43c0,2.56-21,4.63-46.9,4.63s-46.9-2.07-46.9-4.63,21-4.62,46.9-4.62S109,129.88,109,132.43Z" transform="translate(-8.63 -5.82)"/><path class="cls-2" d="M67.5,19.25v4.47c2,.42,4,.76,6,1.24,6,1.43,11.55,3.67,16.29,7.7a38.64,38.64,0,0,1,12.79,21.43,31,31,0,0,1,.35,7.88,1.35,1.35,0,0,1-1,1.32c-1.73.65-3.44,1.35-5.28,2.08l.88,1.28C99.08,69,99,71,97.1,73.1a2.84,2.84,0,0,1-.48.5c-1,.72-1,1.6-.61,2.68a11.38,11.38,0,0,0,3.51,5.39c1.45,1.22,2.44,1.12,3.42-.49a17.21,17.21,0,0,0,1.6-3.52,67,67,0,0,0,3.07-16.19,1.53,1.53,0,0,0-.58-1.56,3.37,3.37,0,0,1-1.26-3,11.08,11.08,0,0,1,1.13-4.68,3.85,3.85,0,0,1,3.91-2.35,25.58,25.58,0,0,1,9.73,2.59A3.3,3.3,0,0,1,122.47,56a23.73,23.73,0,0,1-.74,3.66,3.49,3.49,0,0,1-2.8,2.42,11.49,11.49,0,0,1-1.16.17,4.3,4.3,0,0,0-.15.65,88.43,88.43,0,0,1-3.27,19,27.75,27.75,0,0,1-3.41,7.57,9.71,9.71,0,0,1-7.46,4.72,12.35,12.35,0,0,1-11.42-4.36,22.6,22.6,0,0,1-3.15-5,2.44,2.44,0,0,0-.77-1c0,.34-.08.68-.11,1l-.87,9.25c-.13,1.34-.24,2.67-.42,4-.42,3-1.58,5.61-4.46,7.11-.06,0-.1.13-.18.26l1,.71c2.55,1.76,5.1,3.51,7.64,5.29a15.79,15.79,0,0,1,1.61,1.33c1.48,1.37,1.69,2.44,1,4.36-.91,2.52-1.77,5.06-2.67,7.67.76.45,1.48.84,2.16,1.29,2,1.33,2.77,3.39,3.19,5.63a.9.9,0,0,1-.91,1.13,15.47,15.47,0,0,1-1.67,0c-3.75-.07-7.5-.13-11.25-.23-1.93,0-3.86-.16-5.85-.25a2.89,2.89,0,0,1-.11-.86c.47-2.46,1.46-4.63,3.81-5.82A3.6,3.6,0,0,0,82,123.5c.63-1.88,1.24-3.77,1.88-5.7-.49-.45-.86-.86-1.29-1.19q-6.3-4.8-12.63-9.55a2.23,2.23,0,0,0-1.25-.5c-4.16,0-8.33,0-12.49,0a2.08,2.08,0,0,0-1.14.41q-6.54,4.94-13.06,9.9c-.33.25-.68.48-1,.73.7,2.12,1.31,4,1.94,5.89a3.61,3.61,0,0,0,1.91,2.24c2.3,1.15,3.3,3.27,3.79,5.67a4.28,4.28,0,0,1-.06,1c-1.45.09-2.83.21-4.21.24q-6.73.16-13.47.28c-2.07,0-2.36-.4-1.78-2.39a7.78,7.78,0,0,1,4.36-5.26c.13-.06.27-.09.39-.16a2,2,0,0,0,.32-.33c-.82-2.39-1.63-4.89-2.53-7.36s-.74-3.36,1.23-4.87c2.9-2.22,5.94-4.26,8.93-6.37.63-.45,1.31-.85,2-1.29-.09-.17-.12-.32-.22-.39a9,9,0,0,1-3.31-6.35c-.35-2.52-.66-5-.91-7.58s-.35-4.8-.54-7.42a7.4,7.4,0,0,0-.65.77,23,23,0,0,1-4.61,5.7c-4,3.44-8.43,4-13.24,2.21a9.31,9.31,0,0,1-5.4-5.3,30.35,30.35,0,0,1-2.38-9.37A94.28,94.28,0,0,1,12.14,62c.08-1.15.19-2.3.28-3.42-.11-.09-.16-.19-.24-.21C9.58,57.55,9,56.77,8.71,54a16.47,16.47,0,0,1-.07-2.22,3.49,3.49,0,0,1,2.63-3.51,21.43,21.43,0,0,1,3.51-.79c1.84-.19,3.7-.29,5.54-.3a4.17,4.17,0,0,1,4.45,3.42,10,10,0,0,1,.2,4.8,3,3,0,0,1-1.5,2.23,1.85,1.85,0,0,0-1,1.82,67,67,0,0,0,.38,15.24c.17,1.14.4,2.28.66,3.4a7.31,7.31,0,0,0,.6,1.55c.75,1.43,1.52,1.69,2.94.91a11.11,11.11,0,0,0,5-5.92,1.58,1.58,0,0,0-.17-1c-.1-.24-.36-.41-.54-.62a4.69,4.69,0,0,1-.43-6.34l.82-1.22c-.4-.19-.71-.36-1-.49-1.12-.44-2.23-.92-3.37-1.27A1.75,1.75,0,0,1,26,61.8c0-3-.21-6,.61-9,2.77-10,8.17-18.09,17.22-23.45a42.91,42.91,0,0,1,14.49-5l3.31-.56V18.87c-.3-.16-.58-.33-.87-.45a4.45,4.45,0,0,1-2.57-2.93c-1.32-4.22.52-7.52,3.75-8.95a7.3,7.3,0,0,1,8.16,1.27c2.28,1.94,2.52,7.92,0,10A14.86,14.86,0,0,1,67.5,19.25ZM101.55,62a30.72,30.72,0,0,0-.08-6.85,30.83,30.83,0,0,0-2.86-8.81,34.33,34.33,0,0,0-16.41-17,44.88,44.88,0,0,0-12.71-3.83A21.76,21.76,0,0,0,62.86,25c-2.65.39-5.31.77-7.92,1.38a36,36,0,0,0-12.45,5.3C34.85,37,30.19,44.39,27.81,53.27a22.83,22.83,0,0,0-.36,9.23c2.72.91,5.41,1.91,8.16,2.7a75.1,75.1,0,0,0,18.81,2.46c5.23.13,10.46.13,15.69.09A101.83,101.83,0,0,0,87.8,66.31,62.16,62.16,0,0,0,101.55,62ZM64.33,79.26c3.61-.16,7.22-.2,10.81-.5,3.87-.32,7.74-.73,11.57-1.37a16.06,16.06,0,0,0,9.16-4.86c1.86-2,1.9-3.53.24-5.67-.73-.93-1-1-2.14-.7a71.56,71.56,0,0,1-16,2.6,240.1,240.1,0,0,1-27.75,0,56.43,56.43,0,0,1-6.48-.65c-3.19-.54-6.34-1.3-9.51-1.93a1.94,1.94,0,0,0-1.29.12A3.85,3.85,0,0,0,32.19,72,15.61,15.61,0,0,0,35,74.51a18.77,18.77,0,0,0,8.48,3.21A157,157,0,0,0,64.33,79.26Zm-24.22-.81c0,1.1,0,2.07,0,3-.12,5.76.77,11.44,1.51,17.13a6.65,6.65,0,0,0,5.75,6.11,25.6,25.6,0,0,0,4.54.46c7.68,0,15.37,0,23,0a28.91,28.91,0,0,0,3.6-.26c4.17-.52,6.51-2.87,6.91-7.05.44-4.51,1.32-9,1.34-13.53v-5.6A144.35,144.35,0,0,1,40.11,78.45ZM19.52,57.12c.79-.07,1.42-.11,2.05-.18a2.09,2.09,0,0,0,2.16-2.09,15.44,15.44,0,0,0-.19-3.72,2.79,2.79,0,0,0-3.2-2.61c-2,0-4.07.17-6.09.38a14.15,14.15,0,0,0-2.81.72,2,2,0,0,0-1.48,2,18.87,18.87,0,0,0,.1,3.19c.22,1.69,1.54,2.51,3.39,2.16a17.23,17.23,0,0,1,0-2c.07-.61-.41-1.36.5-2,.7,1.42.16,2.91.55,4.38a25,25,0,0,0,2.6.14c1.07,0,1.34-.36,1.4-1.47,0-.69,0-1.39,0-2.08a3.26,3.26,0,0,1,.25-.8c.94.51.49,1.29.58,1.89S19.48,56.32,19.52,57.12ZM117,60.68c1.86.58,3.21-.08,3.69-1.81a19.85,19.85,0,0,0,.44-2.17c.31-1.93,0-2.58-1.8-3.39a28.77,28.77,0,0,0-8.15-2.14A2.8,2.8,0,0,0,108,52.93a10.43,10.43,0,0,0-.9,4.3A1.84,1.84,0,0,0,108,59a5.16,5.16,0,0,0,3,.65c.13-.68.23-1.31.4-1.93s-.07-1.4.8-1.73c.49.66.11,1.24,0,1.79-.34,2.47,0,2.9,2.55,3,.4,0,.8,0,1.17-.06.79-3.57.79-3.57,1.45-3.92C117.66,58.14,116.85,59.38,117,60.68ZM64.38,17.84c1.35-.15,2.37-.21,3.36-.4a4.15,4.15,0,0,0,1.47-.7c2-1.4,1.67-6.89-.18-8.18a6.75,6.75,0,0,0-5.47-1.23,5.86,5.86,0,0,0-3.7,8.74,2.79,2.79,0,0,0,1.85,1.35C62.69,17.64,63.7,17.74,64.38,17.84ZM47.13,131.27a3.53,3.53,0,0,0-.05-.66,6.54,6.54,0,0,0-6-4.82,37.79,37.79,0,0,0-5,.1,7.36,7.36,0,0,0-3.58,1.39,5.8,5.8,0,0,0-2.2,4.36Zm47.5.37c-.57-3.84-2.9-5.37-6.14-5.77a30.85,30.85,0,0,0-4.3-.12,7.09,7.09,0,0,0-4.44,1.72,5.67,5.67,0,0,0-2,3.8ZM23.21,81l-1.59-4.7c-.69.36-1.33.72-2,1a9.06,9.06,0,0,0-4.34,4.86,2,2,0,0,0-.2,1.19,11.64,11.64,0,0,0,3.18,5.75,4.87,4.87,0,0,0,2.37,1.33C20.81,85.26,21.72,83.36,23.21,81Zm81.28,11.67a8.23,8.23,0,0,0,5.61-4.22c1.41-2.34,1.45-2.81.32-5.26a10.62,10.62,0,0,0-4.65-4.63l-2.28,4.33A15.56,15.56,0,0,1,104.49,92.67ZM23.73,81.85a13.77,13.77,0,0,0-2.1,8.26,1.1,1.1,0,0,0,1,1.1,12.12,12.12,0,0,0,5.36,0A27.86,27.86,0,0,0,31,90c-2.48-2.42-3.1-3.06-4.49-7.59Zm70.8,8.5a1.36,1.36,0,0,0,.13.24,3.62,3.62,0,0,0,.42.36A10.61,10.61,0,0,0,102,93c1.34,0,1.6-.21,1.8-1.55a15,15,0,0,0-.44-6.6,9.62,9.62,0,0,0-.53-1.21H100C98.36,87.22,97.51,88.26,94.53,90.35ZM21,70.32c-3.31-.46-5.11.68-7.11,2.1a1.38,1.38,0,0,0-.39,1.06c.14,1.94.33,3.87.54,5.79.07.66.25,1.29.38,1.94l.31.1c1.25-3.18,4-4.64,6.86-6C21.43,73.64,21.24,72,21,70.32ZM21,62.62a12.33,12.33,0,0,0-7.7,1.66c0,1.27,0,2.47,0,3.67a12.43,12.43,0,0,0,.23,3.69A11,11,0,0,1,21,69.24Zm86.35,10q-.69,2.48-1.32,4.77a29.48,29.48,0,0,1,3.64,3.1,28.44,28.44,0,0,1,2.46,3.94,9.77,9.77,0,0,0,.4-1c.47-1.64.93-3.29,1.35-4.94.65-2.55.62-2.53-1.5-4.18A8.18,8.18,0,0,0,107.32,72.63Zm1.26-7.53c-.35,2.24-.68,4.32-1,6.57a11.13,11.13,0,0,1,7.23,3.6c.39-2.58.74-4.79,1-7,0-.27-.26-.67-.52-.87A11.9,11.9,0,0,0,108.58,65.1ZM90,84.14c.48.9.81,1.62,1.22,2.28a21.28,21.28,0,0,0,1.48,2.17c.83,1.08,1.17,1.17,2.3.38a10.59,10.59,0,0,0,4.11-5.81l-2.73-2.94C94.43,81.77,92.58,83.37,90,84.14ZM27.52,82A11.08,11.08,0,0,0,30.3,88a3.3,3.3,0,0,0,1.1.83,1.12,1.12,0,0,0,1,0,16.05,16.05,0,0,0,3.92-4.49c-2.43-1.13-4-3.07-5.66-4.82Zm9.38,1.57c.61-1.22,1.23-2.4,1.75-3.61a3.27,3.27,0,0,0,.11-1.5,1.12,1.12,0,0,0-.5-.71c-1.62-.88-3.25-1.7-4.91-2.56L31.3,78.87C32.94,80.59,34.34,82.6,36.9,83.56Zm51.46-5a11,11,0,0,0,1.43,4.66c2.46-.56,4.22-2.23,6.06-3.78-.52-1.37-1-2.59-1.41-3.76Zm-6.17,36c.88.8,1.68,1.57,2.54,2.25a1.49,1.49,0,0,0,1,.19,11.8,11.8,0,0,0,5-2.18,6.38,6.38,0,0,0,.93-1L87,110.3A13.4,13.4,0,0,1,82.19,114.55Zm-49-.77A10.69,10.69,0,0,0,39.38,117a1.06,1.06,0,0,0,.65-.12c.89-.76,1.74-1.55,2.67-2.39a13.67,13.67,0,0,1-4.85-4.22Zm43.5-3.42c1.51,1.16,2.76,2.16,4.06,3.1a1.24,1.24,0,0,0,1,.15,9.17,9.17,0,0,0,4.45-3.83l-3.35-2.24C81.17,109.2,79.08,109.76,76.7,110.36Zm-38-.58a9.62,9.62,0,0,0,4,3.7,1.6,1.6,0,0,0,1.28.06c1.38-1,2.69-2,4.13-3.12-1.27-.42-2.35-.67-3.34-1.11a33.3,33.3,0,0,1-2.94-1.67Zm-6.35,5a39.8,39.8,0,0,0,2,6.44l6.1-.66c-.09-.46-.19-.86-.24-1.27-.12-.91-.63-1.28-1.53-1.47a13.46,13.46,0,0,1-3-1C34.63,116.22,33.65,115.53,32.34,114.74Zm58.11,6.43c1.3-2.62,2-5.21,1.76-6.37-.2.15-.38.28-.55.42a10.43,10.43,0,0,1-4.92,2.43,2.24,2.24,0,0,0-2.21,2.28c0,.22,0,.44,0,.59ZM21.32,58.46a11.67,11.67,0,0,0-3.71.13,27.48,27.48,0,0,1-3.75,0,21.93,21.93,0,0,0-.49,4.57c2.55-1.4,5.09-1.49,7.63-1.57C21.11,60.52,21.21,59.56,21.32,58.46Zm94.75,8.36c.12-1.75.21-3.16.31-4.65-.54,0-.9,0-1.25-.1-1-.17-2-.34-3-.56s-2-.49-3.21-.79c-.07,1.25-.13,2.29-.2,3.4A15.51,15.51,0,0,1,116.07,66.82ZM53.18,106.7a7.4,7.4,0,0,0-.8-.19,23.7,23.7,0,0,1-6.7-.91,1.07,1.07,0,0,0-.78.1c-.67.39-1.3.84-2,1.29a2.79,2.79,0,0,0,.41.51,10.41,10.41,0,0,0,5.41,1.89,1.44,1.44,0,0,0,.81-.1C50.7,108.5,51.83,107.66,53.18,106.7Zm28.86.41c-.78-.62-1.34-1.18-2.31-1.09-2.34.22-4.69.34-7,.52a6.86,6.86,0,0,0-.87.22,16.57,16.57,0,0,1,2.05,1.51c1.33,1.38,2.86,1.29,4.47.75a20.72,20.72,0,0,0,2.43-1A9.1,9.1,0,0,0,82,107.11Zm1,17.23,6.34.41c.15-.39.32-.77.44-1.16s.23-.85.33-1.26a11.9,11.9,0,0,0-5.53-.7,1.14,1.14,0,0,0-.72.52C83.56,122.84,83.32,123.59,83,124.34Zm-47.5.51c1.14-.14,2.13-.31,3.14-.37s2.06,0,3.23,0c-.35-.91-.57-1.61-.89-2.27a1.06,1.06,0,0,0-.68-.55,11.67,11.67,0,0,0-5.66.69C35,123.19,35.24,124,35.53,124.85ZM63.07,19.08v4.58h3V19.08Z" transform="translate(-8.63 -5.82)"/><path class="cls-3" d="M101.55,62A62.16,62.16,0,0,1,87.8,66.31a101.83,101.83,0,0,1-17.69,1.44c-5.23,0-10.46,0-15.69-.09A75.1,75.1,0,0,1,35.61,65.2c-2.75-.79-5.44-1.79-8.16-2.7a22.83,22.83,0,0,1,.36-9.23c2.38-8.88,7-16.26,14.68-21.56a36,36,0,0,1,12.45-5.3c2.61-.61,5.27-1,7.92-1.38a21.76,21.76,0,0,1,6.63.45A44.88,44.88,0,0,1,82.2,29.31,34.33,34.33,0,0,1,98.61,46.36a30.83,30.83,0,0,1,2.86,8.81A30.72,30.72,0,0,1,101.55,62ZM72.43,51.93c0,5.89,4.33,10.21,10.4,10.28A10.1,10.1,0,0,0,92.9,52.27c0-6.05-4.34-10.67-10.15-10.72A10.21,10.21,0,0,0,72.43,51.93Zm-14.7,0A10.2,10.2,0,0,0,47.44,41.55c-5.82,0-10.21,4.65-10.17,10.69,0,5.7,4.6,10,10.59,10A10,10,0,0,0,57.73,52Zm7.39,4.87h0c-1.85,0-3.7,0-5.55,0-1.44,0-1.61.13-1.54,1.62a17.55,17.55,0,0,0,.48,3.13,4.88,4.88,0,0,0,3,3.45,9.18,9.18,0,0,0,7.91-.26,4.35,4.35,0,0,0,2.1-2.32,10.09,10.09,0,0,0,.78-4.33c0-1.12-.22-1.29-1.32-1.3Z" transform="translate(-8.63 -5.82)"/><path class="cls-4" d="M64.33,79.26a157,157,0,0,1-20.89-1.54A18.77,18.77,0,0,1,35,74.51,15.61,15.61,0,0,1,32.19,72,3.85,3.85,0,0,1,33,66.29a1.94,1.94,0,0,1,1.29-.12c3.17.63,6.32,1.39,9.51,1.93a56.43,56.43,0,0,0,6.48.65,240.1,240.1,0,0,0,27.75,0,71.56,71.56,0,0,0,16-2.6c1.16-.34,1.41-.23,2.14.7,1.66,2.14,1.62,3.72-.24,5.67a16.06,16.06,0,0,1-9.16,4.86c-3.83.64-7.7,1-11.57,1.37C71.55,79.06,67.94,79.1,64.33,79.26Z" transform="translate(-8.63 -5.82)"/><path class="cls-3" d="M40.11,78.45a144.35,144.35,0,0,0,46.7.3v5.6c0,4.55-.9,9-1.34,13.53-.4,4.18-2.74,6.53-6.91,7.05a28.91,28.91,0,0,1-3.6.26c-7.68,0-15.37,0-23,0a25.6,25.6,0,0,1-4.54-.46,6.65,6.65,0,0,1-5.75-6.11c-.74-5.69-1.63-11.37-1.51-17.13C40.13,80.52,40.11,79.55,40.11,78.45Zm7.48,21.4c10.64.5,21.08.55,31.53.29a7,7,0,0,0,.16-.81c.11-1.75.22-3.51.32-5.26.15-2.73.29-5.45.42-8.18a9,9,0,0,0-.11-1.3l-33.23-.31C47,89.42,47.28,94.56,47.59,99.85Z" transform="translate(-8.63 -5.82)"/><path class="cls-3" d="M19.52,57.12c0-.8,0-1.48-.14-2.15s.36-1.38-.58-1.89a3.26,3.26,0,0,0-.25.8c0,.69,0,1.39,0,2.08-.06,1.11-.33,1.43-1.4,1.47a25,25,0,0,1-2.6-.14c-.39-1.47.15-3-.55-4.38-.91.64-.43,1.39-.5,2a17.23,17.23,0,0,0,0,2c-1.85.35-3.17-.47-3.39-2.16a18.87,18.87,0,0,1-.1-3.19,2,2,0,0,1,1.48-2,14.15,14.15,0,0,1,2.81-.72c2-.21,4.06-.35,6.09-.38a2.79,2.79,0,0,1,3.2,2.61,15.44,15.44,0,0,1,.19,3.72,2.09,2.09,0,0,1-2.16,2.09C20.94,57,20.31,57.05,19.52,57.12Z" transform="translate(-8.63 -5.82)"/><path class="cls-3" d="M117,60.68c-.13-1.3.68-2.54.39-3.91-.66.35-.66.35-1.45,3.92-.37,0-.77.07-1.17.06-2.54-.06-2.89-.49-2.55-3,.08-.55.46-1.13,0-1.79-.87.33-.64,1.14-.8,1.73s-.27,1.25-.4,1.93a5.16,5.16,0,0,1-3-.65,1.84,1.84,0,0,1-.89-1.78,10.43,10.43,0,0,1,.9-4.3,2.8,2.8,0,0,1,3.14-1.76,28.77,28.77,0,0,1,8.15,2.14c1.77.81,2.11,1.46,1.8,3.39a19.85,19.85,0,0,1-.44,2.17C120.19,60.6,118.84,61.26,117,60.68Z" transform="translate(-8.63 -5.82)"/><path class="cls-3" d="M64.38,17.84c-.68-.1-1.69-.2-2.67-.42a2.79,2.79,0,0,1-1.85-1.35,5.86,5.86,0,0,1,3.7-8.74A6.75,6.75,0,0,1,69,8.56c1.85,1.29,2.21,6.78.18,8.18a4.15,4.15,0,0,1-1.47.7C66.75,17.63,65.73,17.69,64.38,17.84Z" transform="translate(-8.63 -5.82)"/><path class="cls-3" d="M47.13,131.27l-16.78.37a5.8,5.8,0,0,1,2.2-4.36,7.36,7.36,0,0,1,3.58-1.39,37.79,37.79,0,0,1,5-.1,6.54,6.54,0,0,1,6,4.82A3.53,3.53,0,0,1,47.13,131.27Z" transform="translate(-8.63 -5.82)"/><path class="cls-3" d="M94.63,131.64l-16.91-.37a5.67,5.67,0,0,1,2-3.8,7.09,7.09,0,0,1,4.44-1.72,30.85,30.85,0,0,1,4.3.12C91.73,126.27,94.06,127.8,94.63,131.64Z" transform="translate(-8.63 -5.82)"/><path class="cls-4" d="M23.21,81c-1.49,2.36-2.4,4.26-2.57,9.47a4.87,4.87,0,0,1-2.37-1.33,11.64,11.64,0,0,1-3.18-5.75,2,2,0,0,1,.2-1.19,9.06,9.06,0,0,1,4.34-4.86c.66-.32,1.3-.68,2-1Z" transform="translate(-8.63 -5.82)"/><path class="cls-4" d="M104.49,92.67a15.56,15.56,0,0,0-1-9.78l2.28-4.33a10.62,10.62,0,0,1,4.65,4.63c1.13,2.45,1.09,2.92-.32,5.26A8.23,8.23,0,0,1,104.49,92.67Z" transform="translate(-8.63 -5.82)"/><path class="cls-4" d="M23.73,81.85l2.81.54c1.39,4.53,2,5.17,4.49,7.59a27.86,27.86,0,0,1-3,1.19,12.12,12.12,0,0,1-5.36,0,1.1,1.1,0,0,1-1-1.1A13.77,13.77,0,0,1,23.73,81.85Z" transform="translate(-8.63 -5.82)"/><path class="cls-4" d="M94.54,90.35c3-2.09,3.82-3.13,5.42-6.69h2.85a9.62,9.62,0,0,1,.53,1.21,15,15,0,0,1,.44,6.6c-.2,1.34-.46,1.54-1.8,1.55A10.61,10.61,0,0,1,95.08,91a3.62,3.62,0,0,1-.42-.36A.9.9,0,0,1,94.54,90.35Z" transform="translate(-8.63 -5.82)"/><path class="cls-4" d="M21,70.32c.2,1.68.39,3.32.59,5-2.89,1.34-5.61,2.8-6.86,6l-.31-.1c-.13-.65-.31-1.28-.38-1.94-.21-1.92-.4-3.85-.54-5.79a1.38,1.38,0,0,1,.39-1.06C15.93,71,17.73,69.86,21,70.32Z" transform="translate(-8.63 -5.82)"/><path class="cls-4" d="M21,62.62v6.62a11,11,0,0,0-7.46,2.4A12.43,12.43,0,0,1,13.28,68c0-1.2,0-2.4,0-3.67A12.33,12.33,0,0,1,21,62.62Z" transform="translate(-8.63 -5.82)"/><path class="cls-4" d="M107.32,72.63a8.18,8.18,0,0,1,5,1.72c2.12,1.65,2.15,1.63,1.5,4.18-.42,1.65-.88,3.3-1.35,4.94a9.77,9.77,0,0,1-.4,1,28.44,28.44,0,0,0-2.46-3.94A29.48,29.48,0,0,0,106,77.4Q106.63,75.11,107.32,72.63Z" transform="translate(-8.63 -5.82)"/><path class="cls-4" d="M108.58,65.1a11.9,11.9,0,0,1,6.69,2.28c.26.2.56.6.52.87-.28,2.23-.63,4.44-1,7a11.13,11.13,0,0,0-7.23-3.6C107.9,69.42,108.23,67.34,108.58,65.1Z" transform="translate(-8.63 -5.82)"/><path class="cls-4" d="M90,84.14c2.59-.77,4.44-2.37,6.38-3.92l2.73,2.94A10.59,10.59,0,0,1,95,89c-1.13.79-1.47.7-2.3-.38a21.28,21.28,0,0,1-1.48-2.17C90.8,85.76,90.47,85,90,84.14Z" transform="translate(-8.63 -5.82)"/><path class="cls-4" d="M27.52,82l3.12-2.46c1.7,1.75,3.23,3.69,5.66,4.82a16.05,16.05,0,0,1-3.92,4.49,1.12,1.12,0,0,1-1,0A3.3,3.3,0,0,1,30.3,88,11.08,11.08,0,0,1,27.52,82Z" transform="translate(-8.63 -5.82)"/><path class="cls-4" d="M36.9,83.56c-2.56-1-4-3-5.6-4.69l2.05-3.69c1.66.86,3.29,1.68,4.91,2.56a1.12,1.12,0,0,1,.5.71,3.27,3.27,0,0,1-.11,1.5C38.13,81.16,37.51,82.34,36.9,83.56Z" transform="translate(-8.63 -5.82)"/><path class="cls-4" d="M88.36,78.55l6.08-2.88c.44,1.17.89,2.39,1.41,3.76C94,81,92.25,82.65,89.79,83.21A11,11,0,0,1,88.36,78.55Z" transform="translate(-8.63 -5.82)"/><path class="cls-4" d="M82.19,114.55A13.4,13.4,0,0,0,87,110.3l4.71,3.5a6.38,6.38,0,0,1-.93,1,11.8,11.8,0,0,1-5,2.18,1.49,1.49,0,0,1-1-.19C83.87,116.12,83.07,115.35,82.19,114.55Z" transform="translate(-8.63 -5.82)"/><path class="cls-4" d="M33.2,113.78l4.65-3.47a13.67,13.67,0,0,0,4.85,4.22c-.93.84-1.78,1.63-2.67,2.39a1.06,1.06,0,0,1-.65.12A10.69,10.69,0,0,1,33.2,113.78Z" transform="translate(-8.63 -5.82)"/><path class="cls-4" d="M76.7,110.36c2.38-.6,4.47-1.16,6.17-2.82l3.35,2.24a9.17,9.17,0,0,1-4.45,3.83,1.24,1.24,0,0,1-1-.15C79.46,112.52,78.21,111.52,76.7,110.36Z" transform="translate(-8.63 -5.82)"/><path class="cls-4" d="M38.69,109.78l3.15-2.14a33.3,33.3,0,0,0,2.94,1.67c1,.44,2.07.69,3.34,1.11-1.44,1.1-2.75,2.16-4.13,3.12a1.6,1.6,0,0,1-1.28-.06A9.62,9.62,0,0,1,38.69,109.78Z" transform="translate(-8.63 -5.82)"/><path class="cls-4" d="M32.34,114.74c1.31.79,2.29,1.48,3.35,2a13.46,13.46,0,0,0,3,1c.9.19,1.41.56,1.53,1.47,0,.41.15.81.24,1.27l-6.1.66A39.8,39.8,0,0,1,32.34,114.74Z" transform="translate(-8.63 -5.82)"/><path class="cls-4" d="M90.45,121.17l-6-.65c0-.15,0-.37,0-.59a2.24,2.24,0,0,1,2.21-2.28,10.43,10.43,0,0,0,4.92-2.43c.17-.14.35-.27.55-.42C92.49,116,91.75,118.55,90.45,121.17Z" transform="translate(-8.63 -5.82)"/><path class="cls-4" d="M21.32,58.46c-.11,1.1-.21,2.06-.32,3.16-2.54.08-5.08.17-7.63,1.57a21.93,21.93,0,0,1,.49-4.57,27.48,27.48,0,0,0,3.75,0A11.67,11.67,0,0,1,21.32,58.46Z" transform="translate(-8.63 -5.82)"/><path class="cls-4" d="M116.07,66.82a15.51,15.51,0,0,0-7.33-2.7c.07-1.11.13-2.15.2-3.4,1.18.3,2.19.57,3.21.79s2,.39,3,.56c.35.06.71.06,1.25.1C116.28,63.66,116.19,65.07,116.07,66.82Z" transform="translate(-8.63 -5.82)"/><path class="cls-4" d="M53.18,106.7c-1.35,1-2.48,1.8-3.65,2.59a1.44,1.44,0,0,1-.81.1,10.41,10.41,0,0,1-5.41-1.89,2.79,2.79,0,0,1-.41-.51c.7-.45,1.33-.9,2-1.29a1.07,1.07,0,0,1,.78-.1,23.7,23.7,0,0,0,6.7.91A7.4,7.4,0,0,1,53.18,106.7Z" transform="translate(-8.63 -5.82)"/><path class="cls-4" d="M82,107.11a9.1,9.1,0,0,1-1.27.9,20.72,20.72,0,0,1-2.43,1c-1.61.54-3.14.63-4.47-.75a16.57,16.57,0,0,0-2.05-1.51,6.86,6.86,0,0,1,.87-.22c2.35-.18,4.7-.3,7-.52C80.7,105.93,81.26,106.49,82,107.11Z" transform="translate(-8.63 -5.82)"/><path class="cls-4" d="M83,124.34c.29-.75.53-1.5.86-2.19a1.14,1.14,0,0,1,.72-.52,11.9,11.9,0,0,1,5.53.7c-.1.41-.2.84-.33,1.26s-.29.77-.44,1.16Z" transform="translate(-8.63 -5.82)"/><path class="cls-4" d="M35.53,124.85c-.29-.85-.57-1.66-.86-2.52a11.67,11.67,0,0,1,5.66-.69,1.06,1.06,0,0,1,.68.55c.32.66.54,1.36.89,2.27-1.17,0-2.2,0-3.23,0S36.67,124.71,35.53,124.85Z" transform="translate(-8.63 -5.82)"/><path class="cls-4" d="M63.07,19.08h3v4.58h-3Z" transform="translate(-8.63 -5.82)"/><path class="cls-2" d="M72.43,51.93A10.21,10.21,0,0,1,82.75,41.55c5.81.05,10.19,4.67,10.15,10.72a10.1,10.1,0,0,1-10.07,9.94C76.76,62.14,72.39,57.82,72.43,51.93ZM82.9,42.87A9,9,0,0,0,75,56.67c1.74,3,4.54,4.14,7.93,4.27Zm1.29.28c-.17,5.83.11,11.65.2,17.5,4.81-.87,7.54-4.68,7.19-9.8C91.31,47,87.87,43.31,84.19,43.15Z" transform="translate(-8.63 -5.82)"/><path class="cls-2" d="M57.73,52a10,10,0,0,1-9.87,10.25c-6,0-10.56-4.27-10.59-10,0-6,4.35-10.65,10.17-10.69A10.2,10.2,0,0,1,57.73,52ZM47.34,43c-4.49-.37-8.51,3.69-8.81,8.32a8.74,8.74,0,0,0,8.81,9.46Zm1.19,0c.09,5.93.18,11.78.26,17.63,4.47-.29,7.93-4.56,7.67-9.1S52.91,43.22,48.53,43.07Z" transform="translate(-8.63 -5.82)"/><path class="cls-2" d="M65.12,56.83H71c1.1,0,1.27.18,1.32,1.3a10.09,10.09,0,0,1-.78,4.33,4.35,4.35,0,0,1-2.1,2.32,9.18,9.18,0,0,1-7.91.26,4.88,4.88,0,0,1-3-3.45A17.55,17.55,0,0,1,58,58.46c-.07-1.49.1-1.61,1.54-1.62,1.85,0,3.7,0,5.55,0Zm-5,5.42a6.26,6.26,0,0,1,3.2-2.13,5.84,5.84,0,0,1,3.81.05,19.51,19.51,0,0,1,3,2,5.18,5.18,0,0,0,.64-4H59.44A6.54,6.54,0,0,0,60.14,62.25Zm8.73,1.1a3.48,3.48,0,0,0-3.7-2.22c-1.63.11-3.15.48-4,2.15A7.16,7.16,0,0,0,68.87,63.35Z" transform="translate(-8.63 -5.82)"/><path class="cls-2" d="M47.59,99.85c-.31-5.29-.61-10.43-.91-15.57l33.23.31a9,9,0,0,1,.11,1.3c-.13,2.73-.27,5.45-.42,8.18-.1,1.75-.21,3.51-.32,5.26a7,7,0,0,1-.16.81C68.67,100.4,58.23,100.35,47.59,99.85Zm.86-1c2.67.61,27.58.82,29.76.28.49-1.93,1-12.63.72-13.63L47.7,85.19C47.69,89.72,48.21,94.29,48.45,98.83Z" transform="translate(-8.63 -5.82)"/><path class="cls-5" d="M82.9,42.87V60.94c-3.39-.13-6.19-1.27-7.93-4.27a9,9,0,0,1,7.93-13.8Z" transform="translate(-8.63 -5.82)"/><path class="cls-6" d="M84.19,43.15c3.68.16,7.12,3.8,7.39,7.7.35,5.12-2.38,8.93-7.19,9.8C84.3,54.8,84,49,84.19,43.15Z" transform="translate(-8.63 -5.82)"/><path class="cls-5" d="M47.34,43V60.81a8.74,8.74,0,0,1-8.81-9.46C38.83,46.72,42.85,42.66,47.34,43Z" transform="translate(-8.63 -5.82)"/><path class="cls-6" d="M48.53,43.07c4.38.15,7.67,4,7.93,8.53s-3.2,8.81-7.67,9.1C48.71,54.85,48.62,49,48.53,43.07Z" transform="translate(-8.63 -5.82)"/><path class="cls-5" d="M60.14,62.25a6.54,6.54,0,0,1-.7-4.12H70.79a5.18,5.18,0,0,1-.64,4,19.51,19.51,0,0,0-3-2,5.84,5.84,0,0,0-3.81-.05A6.26,6.26,0,0,0,60.14,62.25Z" transform="translate(-8.63 -5.82)"/><path class="cls-7" d="M68.87,63.35a7.16,7.16,0,0,1-7.66-.07c.81-1.67,2.33-2,4-2.15A3.48,3.48,0,0,1,68.87,63.35Z" transform="translate(-8.63 -5.82)"/><path class="cls-4" d="M48.45,98.83c-.24-4.54-.76-9.11-.75-13.64l31.23.29c.31,1-.23,11.7-.72,13.63C76,99.65,51.12,99.44,48.45,98.83Zm18.14-6.62A3,3,0,0,0,63.37,89a3.44,3.44,0,0,0-3.32,3.39,3.19,3.19,0,0,0,3.47,3A3,3,0,0,0,66.59,92.21Z" transform="translate(-8.63 -5.82)"/><path class="cls-2" d="M66.59,92.21a3,3,0,0,1-3.07,3.19,3.19,3.19,0,0,1-3.47-3A3.44,3.44,0,0,1,63.37,89,3,3,0,0,1,66.59,92.21Zm-.88.08a2.11,2.11,0,0,0-2.16-2.35A2.49,2.49,0,0,0,61,92.26a2.27,2.27,0,0,0,2.45,2.26A2.18,2.18,0,0,0,65.71,92.29Z" transform="translate(-8.63 -5.82)"/><path class="cls-8" d="M65.71,92.29a2.18,2.18,0,0,1-2.31,2.23A2.27,2.27,0,0,1,61,92.26a2.49,2.49,0,0,1,2.6-2.32A2.11,2.11,0,0,1,65.71,92.29Z" transform="translate(-8.63 -5.82)"/></g></g></svg>